<svg version="1.1" xmlns="http://www.w3.org/2000/svg" xmlns:xlink="http://www.w3.org/1999/xlink" width="48" height="48"><defs><linearGradient x1="0" y1="0" x2="0" y2="0" gradientUnits="userSpaceOnUse" id="color-1"><stop offset="1" stop-color="#000000" stop-opacity="0"></stop><stop offset="1" stop-color="#000000" stop-opacity="0"></stop></linearGradient><filter id="dropshadow-base"><feColorMatrix type="matrix" values="0 0 0 0 0  0 0 0 0 0  0 0 0 0 0  0 0 0 .8 0"></feColorMatrix> <feOffset dx="0" dy="1"></feOffset> <feGaussianBlur stdDeviation="1"></feGaussianBlur> <feComposite in="SourceGraphic"></feComposite></filter><filter id="dropshadow-banner" x="-10%" y="-10%" width="120%" height="130%"><feColorMatrix type="matrix" values="0 0 0 0 0  0 0 0 0 0  0 0 0 0 0  0 0 0 .4 0"></feColorMatrix> <feOffset dx="0" dy="1"></feOffset> <feGaussianBlur stdDeviation="0.5"></feGaussianBlur> <feComposite in="SourceGraphic"></feComposite></filter></defs><g fill="none" fill-rule="nonzero" stroke="none" stroke-width="none" stroke-linecap="butt" stroke-linejoin="miter" stroke-miterlimit="10" stroke-dasharray="" stroke-dashoffset="0" font-family="none" font-weight="none" font-size="none" text-anchor="none" style="mix-blend-mode: normal"><path d="M7,43c-1.10457,0 -2,-0.89543 -2,-2v-34c0,-1.10457 0.89543,-2 2,-2h34c1.10457,0 2,0.89543 2,2v34c0,1.10457 -0.89543,2 -2,2z" id="base 1 5" fill="#ffffff" stroke-width="1"></path><path d="" fill="url(#color-1)" stroke-width="1"></path><path transform="translate(-11.11329,-15.31226) scale(1.55568,1.55568)" d="M31.61905,23.52381h-1.42857v-3.80952c0,-1.05238 -0.85238,-1.90476 -1.90476,-1.90476h-3.80952v-1.42857c0,-1.31429 -1.06667,-2.38095 -2.38095,-2.38095c-1.31429,0 -2.38095,1.06667 -2.38095,2.38095v1.42857h-3.80952c-1.05238,0 -1.89524,0.85238 -1.89524,1.90476l-0.00476,3.61905h1.42381c1.41905,0 2.57143,1.15238 2.57143,2.57143c0,1.41905 -1.15238,2.57143 -2.57143,2.57143h-1.42381l-0.00476,3.61905c0,1.05238 0.85238,1.90476 1.90476,1.90476h3.61905v-1.42857c0,-1.41905 1.15238,-2.57143 2.57143,-2.57143c1.41905,0 2.57143,1.15238 2.57143,2.57143v1.42857h3.61905c1.05238,0 1.90476,-0.85238 1.90476,-1.90476v-3.80952h1.42857c1.31429,0 2.38095,-1.06667 2.38095,-2.38095c0,-1.31429 -1.06667,-2.38095 -2.38095,-2.38095z" fill="none" stroke-width="0"></path><g fill="#000000" stroke-width="1"><path d="M38.07577,21.28321h-2.2224v-5.92639c0,-1.63717 -1.32603,-2.9632 -2.9632,-2.9632h-5.92639v-2.2224c0,-2.04461 -1.65939,-3.704 -3.704,-3.704c-2.04461,0 -3.704,1.65939 -3.704,3.704v2.2224h-5.92639c-1.63717,0 -2.94838,1.32603 -2.94838,2.9632l-0.00741,5.63007h2.21499c2.20758,0 4.00032,1.79273 4.00032,4.00032c0,2.20758 -1.79273,4.00032 -4.00032,4.00032h-2.21499l-0.00741,5.63007c0,1.63717 1.32603,2.9632 2.9632,2.9632h5.63007v-2.2224c0,-2.20758 1.79273,-4.00032 4.00032,-4.00032c2.20758,0 4.00032,1.79273 4.00032,4.00032v2.2224h5.63007c1.63717,0 2.9632,-1.32603 2.9632,-2.9632v-5.92639h2.2224c2.04461,0 3.704,-1.65939 3.704,-3.704c0,-2.04461 -1.65939,-3.704 -3.704,-3.704z"></path></g><path d="M2,24c0,-12.15026 9.84974,-22 22,-22c12.15026,0 22,9.84974 22,22c0,12.15026 -9.84974,22 -22,22c-12.15026,0 -22,-9.84974 -22,-22z" id="base 1 1 1" fill="none" stroke-width="1"></path><g fill="#000000" stroke-width="1" font-family="Roboto,sans-serif" font-weight="400" font-size="14" text-anchor="start"></g><rect x="2" y="2" width="44" height="22" fill="none" stroke-width="1"></rect><path d="M2,24v-22h44v22z" fill="none" stroke-width="1"></path><path d="M2,24v-22h44v22z" fill="none" stroke-width="1"></path><path d="M2,24v-22h44v22z" fill="none" stroke-width="1"></path><path d="M2,24v-22h44v22z" fill="none" stroke-width="1"></path></g></svg>